<svg xmlns="http://www.w3.org/2000/svg" width="232" height="32" viewBox="0 0 232 32" fill="none"><path d="M2.19598 19.2584H12.261C12.5783 19.2553 12.8817 19.1278 13.1061 18.9035C13.3304 18.6791 13.4579 18.3757 13.461 18.0584V13.8194C13.461 13.5012 13.3346 13.1959 13.1095 12.9709C12.8845 12.7458 12.5792 12.6194 12.261 12.6194H2.19598C1.87772 12.6194 1.57252 12.7458 1.34747 12.9709C1.12243 13.1959 0.996002 13.5012 0.996002 13.8194V18.0624C0.997061 18.38 1.12395 18.6842 1.34888 18.9084C1.57381 19.1325 1.87842 19.2584 2.19598 19.2584Z" fill="white"></path><path d="M24.031 9.89642C24.0313 8.70179 24.3158 7.52438 24.861 6.46143C24.861 6.42343 24.867 6.38541 24.871 6.34741L19.814 12.4794C19.0417 13.4157 18.6193 14.5917 18.6193 15.8054C18.6193 17.0192 19.0417 18.1951 19.814 19.1314L22.209 22.0314L23.769 23.9184L27.107 27.9564L28.973 30.2134L29.94 31.3824C30.0735 31.5367 30.2371 31.6621 30.4207 31.751C30.6043 31.8399 30.8042 31.8904 31.008 31.8994H31.041C31.2616 31.8922 31.478 31.838 31.676 31.7404C31.8596 31.6612 32.0287 31.5517 32.176 31.4164L32.329 31.2654L34.981 28.6554C35.2455 28.3921 35.4023 28.0395 35.4208 27.6667C35.4393 27.2939 35.3181 26.9276 35.081 26.6394L34.232 25.6194L31.344 22.1504L27.325 17.3224C26.9786 16.906 26.7861 16.3831 26.78 15.8414C26.743 15.7754 26.711 15.7074 26.68 15.6414C25.849 14.9326 25.1818 14.0518 24.7245 13.0599C24.2671 12.068 24.0305 10.9887 24.031 9.89642Z" fill="white"></path><path d="M35.159 4.28139C35.1264 3.94792 34.9819 3.6353 34.749 3.3944L31.883 0.449393C31.6756 0.238258 31.4099 0.0937903 31.12 0.0344154C31.0031 0.00901092 30.8836 -0.00239912 30.764 0.000418806C30.5559 0.00805759 30.3516 0.0591359 30.1644 0.150413C29.9772 0.24169 29.8112 0.371144 29.677 0.530418L27.122 3.63039L27.104 3.65142L24.877 6.3514C24.877 6.3894 24.871 6.42841 24.867 6.46542C24.0931 7.97583 23.8512 9.70307 24.1804 11.368C24.5095 13.0329 25.3906 14.5381 26.681 15.6404C26.717 15.7064 26.749 15.7744 26.781 15.8404C26.7702 15.2686 26.9671 14.7122 27.335 14.2744L34.82 5.39541C34.9487 5.2422 35.0451 5.06452 35.1034 4.87307C35.1617 4.68162 35.1806 4.48035 35.159 4.28139Z" fill="white"></path><path style="mix-blend-mode:multiply" opacity="0.3" d="M35.159 4.28139C35.1264 3.94792 34.9819 3.6353 34.749 3.3944L31.883 0.449393C31.6756 0.238258 31.4099 0.0937903 31.12 0.0344154C31.0031 0.00901092 30.8836 -0.00239912 30.764 0.000418806C30.5559 0.00805759 30.3516 0.0591359 30.1644 0.150413C29.9772 0.24169 29.8112 0.371144 29.677 0.530418L27.122 3.63039L27.104 3.65142L24.877 6.3514C24.877 6.3894 24.871 6.42841 24.867 6.46542C24.0931 7.97583 23.8512 9.70307 24.1804 11.368C24.5095 13.0329 25.3906 14.5381 26.681 15.6404C26.717 15.7064 26.749 15.7744 26.781 15.8404C26.7702 15.2686 26.9671 14.7122 27.335 14.2744L34.82 5.39541C34.9487 5.2422 35.0451 5.06452 35.1034 4.87307C35.1617 4.68162 35.1806 4.48035 35.159 4.28139Z" fill="white"></path><path d="M10.405 24.4474H2.19598C1.87869 24.4506 1.57529 24.578 1.35092 24.8023C1.12655 25.0267 0.999128 25.3301 0.996002 25.6474V29.8904C0.996002 30.2087 1.12243 30.5139 1.34747 30.7389C1.57252 30.964 1.87772 31.0904 2.19598 31.0904H4.73499C5.73607 28.2424 7.77044 25.8744 10.435 24.4554H10.409" fill="white"></path><path d="M4.735 31.0784H18.825C19.1433 31.0784 19.4485 30.952 19.6735 30.7269C19.8986 30.5019 20.025 30.1967 20.025 29.8784V25.6354C20.025 25.3172 19.8986 25.0119 19.6735 24.7869C19.4485 24.5618 19.1433 24.4354 18.825 24.4354H10.431C7.76644 25.857 5.73338 28.2281 4.735 31.0784Z" fill="white"></path><path style="mix-blend-mode:multiply" opacity="0.4" d="M4.735 31.0784H18.825C19.1433 31.0784 19.4485 30.952 19.6735 30.7269C19.8986 30.5019 20.025 30.1967 20.025 29.8784V25.6354C20.025 25.3172 19.8986 25.0119 19.6735 24.7869C19.4485 24.5618 19.1433 24.4354 18.825 24.4354H10.431C7.76644 25.857 5.73338 28.2281 4.735 31.0784Z" fill="white"></path><path d="M18.775 0.803408H16.289C15.2878 3.65136 13.2535 6.0194 10.589 7.43842H18.824C18.9606 7.43719 19.096 7.41215 19.224 7.36441C19.457 7.28311 19.6591 7.13155 19.8024 6.9306C19.9457 6.72966 20.0231 6.4892 20.024 6.2424V1.99942C20.024 1.68116 19.8976 1.37592 19.6725 1.15088C19.4475 0.925837 19.1423 0.79941 18.824 0.79941H18.774" fill="white"></path><path d="M16.286 0.803408H2.19598C1.87772 0.803408 1.57252 0.929835 1.34747 1.15488C1.12243 1.37992 0.996002 1.68516 0.996002 2.00342V6.2464C0.996002 6.56466 1.12243 6.8699 1.34747 7.09494C1.57252 7.31999 1.87772 7.44641 2.19598 7.44641H10.59C13.2546 6.02477 15.2876 3.65371 16.286 0.803408Z" fill="white"></path><path style="mix-blend-mode:multiply" opacity="0.4" d="M16.286 0.803408H2.19598C1.87772 0.803408 1.57252 0.929835 1.34747 1.15488C1.12243 1.37992 0.996002 1.68516 0.996002 2.00342V6.2464C0.996002 6.56466 1.12243 6.8699 1.34747 7.09494C1.57252 7.31999 1.87772 7.44641 2.19598 7.44641H10.59C13.2546 6.02477 15.2876 3.65371 16.286 0.803408Z" fill="white"></path><path d="M51.354 17.9324H61.015V14.0264H51.354V7.89341H63.071V3.88538H46.9V28.3854H63.482V24.3734H51.354V17.9324Z" fill="white"></path><path d="M70.024 3.88639H65.81V28.3824H70.024V3.88639Z" fill="white"></path><path d="M85.87 11.1794C84.4501 10.4541 82.8731 10.0907 81.279 10.1214C79.6826 10.0936 78.1073 10.4897 76.714 11.2694C75.3861 12.0336 74.3057 13.163 73.601 14.5234C72.8375 16.0294 72.4566 17.7003 72.492 19.3884C72.4581 21.0656 72.8522 22.7238 73.637 24.2064C74.3861 25.5769 75.5164 26.7009 76.891 27.4424C78.4018 28.2307 80.0873 28.6245 81.791 28.5874C83.7495 28.6513 85.6681 28.0244 87.211 26.8164C88.6322 25.6849 89.5858 24.0686 89.889 22.2774L89.944 21.9774H85.737L85.688 22.1704C85.4887 23.0341 84.9759 23.7931 84.249 24.3004C83.438 24.8282 82.4841 25.0936 81.517 25.0604C80.9137 25.0876 80.3112 24.9897 79.7475 24.7731C79.1837 24.5564 78.6708 24.2256 78.241 23.8014C77.3905 22.8701 76.9063 21.6622 76.878 20.4014H90.067L90.098 20.1804C90.1673 19.7021 90.2027 19.2196 90.204 18.7364C90.2158 17.143 89.8074 15.5746 89.02 14.1894C88.2719 12.9114 87.1806 11.8687 85.87 11.1794ZM77.051 17.1794C77.1943 16.2006 77.6905 15.3079 78.446 14.6694C79.2755 13.9697 80.331 13.5955 81.416 13.6164C82.5292 13.5756 83.6198 13.9374 84.488 14.6354C85.2431 15.2882 85.7374 16.1915 85.88 17.1794H77.051Z" fill="white"></path><path d="M113.175 10.1214C111.869 10.0863 110.576 10.3865 109.419 10.9934C108.512 11.4976 107.732 12.2026 107.139 13.0544C106.665 12.1702 105.951 11.438 105.079 10.9424C104.041 10.3809 102.876 10.0981 101.696 10.1214C100.758 10.1004 99.8275 10.2832 98.9676 10.6572C98.1076 11.0312 97.339 11.5874 96.715 12.2874L96.364 10.3264L92.672 11.6964V28.3814H96.886V18.7384C96.8181 17.4498 97.1913 16.1765 97.944 15.1284C98.2717 14.702 98.6972 14.3607 99.1845 14.1332C99.6718 13.9058 100.207 13.7988 100.744 13.8214C101.226 13.7867 101.709 13.867 102.153 14.0557C102.598 14.2443 102.991 14.5359 103.301 14.9064C103.961 15.8937 104.273 17.0729 104.187 18.2574V28.3814H108.436V18.6344C108.363 17.3629 108.736 16.1058 109.491 15.0804C109.832 14.6636 110.266 14.3326 110.758 14.114C111.25 13.8953 111.786 13.7951 112.324 13.8214C112.804 13.786 113.286 13.8676 113.728 14.0592C114.17 14.2508 114.559 14.5466 114.862 14.9214C115.508 15.9092 115.814 17.0808 115.734 18.2584V28.3824H119.948V18.2284C119.948 15.4284 119.313 13.3584 118.06 12.0704C117.425 11.4248 116.663 10.9181 115.822 10.5826C114.981 10.2471 114.08 10.09 113.175 10.1214Z" fill="white"></path><path d="M135.509 11.1794C134.089 10.4541 132.512 10.0907 130.918 10.1214C129.322 10.0935 127.746 10.4897 126.353 11.2694C125.023 12.0345 123.942 13.1658 123.237 14.5284C122.474 16.0345 122.093 17.7053 122.128 19.3934C122.094 21.0707 122.489 22.7289 123.274 24.2114C124.023 25.5822 125.153 26.7063 126.528 27.4474C128.039 28.2359 129.724 28.6298 131.428 28.5924C133.387 28.6565 135.305 28.0296 136.848 26.8214C138.269 25.6897 139.223 24.0735 139.526 22.2824L139.58 21.9824H135.373L135.324 22.1754C135.125 23.0392 134.612 23.7983 133.885 24.3054C133.074 24.8332 132.12 25.0985 131.153 25.0654C130.55 25.0924 129.947 24.9946 129.384 24.7779C128.82 24.5613 128.307 24.2305 127.877 23.8064C127.027 22.8751 126.542 21.6673 126.514 20.4064H139.702L139.733 20.1854C139.802 19.7071 139.838 19.2246 139.839 18.7414C139.851 17.148 139.442 15.5796 138.655 14.1944C137.909 12.915 136.819 11.8705 135.509 11.1794ZM126.69 17.1794C126.835 16.1999 127.333 15.3071 128.09 14.6694C128.919 13.97 129.974 13.5957 131.059 13.6164C132.172 13.5757 133.263 13.9375 134.131 14.6354C134.886 15.2881 135.38 16.1915 135.522 17.1794H126.69Z" fill="white"></path><path d="M151.816 10.1214C150.803 10.0749 149.792 10.2454 148.85 10.6213C147.908 10.9973 147.057 11.5701 146.355 12.3014L146.002 10.3264L142.31 11.6964V28.3814H146.524V19.2814C146.44 17.839 146.862 16.4125 147.716 15.2474C148.107 14.7716 148.604 14.3942 149.168 14.1456C149.731 13.897 150.345 13.7843 150.96 13.8164C151.507 13.7759 152.056 13.864 152.563 14.0735C153.07 14.2831 153.52 14.6084 153.879 15.0234C154.618 16.0873 154.97 17.3715 154.879 18.6634V28.3764H159.127V18.4574C159.127 15.5664 158.438 13.4294 157.08 12.1064C156.379 11.4422 155.552 10.9245 154.648 10.5836C153.744 10.2428 152.781 10.0856 151.816 10.1214Z" fill="white"></path><path d="M167.691 24.2644C167.425 23.8942 167.304 23.4389 167.352 22.9854V14.0954H171.566V10.3274H167.352V5.42738L163.104 6.79741V10.3264H161.425L160.055 14.0944H163.105V23.3624C162.997 24.0491 163.054 24.7516 163.27 25.4122C163.486 26.0728 163.856 26.6727 164.35 27.1625C164.843 27.6524 165.445 28.0183 166.107 28.2302C166.769 28.4421 167.472 28.4939 168.158 28.3814H171.978V24.6134H168.912C168.475 24.6614 168.037 24.5361 167.691 24.2644Z" fill="white"></path><path d="M185.09 18.0994C183.835 17.7217 182.545 17.4714 181.239 17.3524C180.139 17.2174 179.323 17.0974 178.827 16.9964C178.412 16.9215 178.021 16.7502 177.685 16.4964C177.546 16.3761 177.437 16.2245 177.367 16.054C177.298 15.8834 177.269 15.6989 177.285 15.5154C177.283 15.2155 177.363 14.9208 177.517 14.6634C177.67 14.4059 177.892 14.1956 178.157 14.0554C178.911 13.6382 179.765 13.4381 180.626 13.4774C181.522 13.4425 182.405 13.6952 183.147 14.1984C183.449 14.3989 183.704 14.6633 183.893 14.9729C184.083 15.2825 184.202 15.6298 184.242 15.9904L184.268 16.2184H188.368L188.35 15.9454C188.323 15.089 188.097 14.2507 187.688 13.4974C187.28 12.7441 186.702 12.0965 185.999 11.6064C184.62 10.7738 183.068 10.2675 181.463 10.1263C179.858 9.98503 178.242 10.2125 176.738 10.7914C175.701 11.2152 174.799 11.914 174.13 12.8124C173.495 13.6867 173.159 14.7428 173.173 15.8234C173.121 16.8783 173.468 17.914 174.147 18.7234C174.828 19.458 175.697 19.9925 176.66 20.2694C177.912 20.6309 179.194 20.8809 180.491 21.0164C181.591 21.1514 182.42 21.2814 182.947 21.4054C183.38 21.4909 183.783 21.6881 184.116 21.9774C184.259 22.1302 184.369 22.3113 184.438 22.5091C184.506 22.7068 184.533 22.9167 184.516 23.1254C184.514 23.4326 184.426 23.7332 184.264 23.9937C184.101 24.2543 183.869 24.4646 183.594 24.6014C182.801 25.0329 181.906 25.2403 181.004 25.2014C179.97 25.2481 178.948 24.9591 178.091 24.3774C177.751 24.1471 177.467 23.8423 177.263 23.486C177.058 23.1297 176.937 22.7314 176.91 22.3214L176.892 22.0834H172.827L172.834 22.3464C172.828 23.2454 173.038 24.1327 173.446 24.9334C173.855 25.734 174.451 26.4245 175.183 26.9464C176.909 28.1058 178.962 28.6813 181.039 28.5884C182.359 28.6065 183.67 28.3737 184.903 27.9024C185.984 27.4985 186.934 26.8069 187.65 25.9024C188.321 25.028 188.678 23.9527 188.663 22.8504C188.721 21.7316 188.37 20.6298 187.676 19.7504C186.985 18.9693 186.089 18.3974 185.09 18.0994Z" fill="white"></path><path d="M212.098 3.88538H206.618L195.992 15.8344V3.88538H191.538V28.3854H195.992V21.9534L199.892 17.5784L207.286 28.3784H212.668L203.046 14.1674L212.098 3.88538Z" fill="white"></path><path d="M215.81 3.3034C215.48 3.29578 215.151 3.3543 214.844 3.47555C214.536 3.59679 214.256 3.77831 214.02 4.00939C213.553 4.48302 213.291 5.12158 213.291 5.78689C213.291 6.4522 213.553 7.09076 214.02 7.56439C214.505 8.01868 215.145 8.27148 215.809 8.27148C216.474 8.27148 217.114 8.01868 217.599 7.56439C218.066 7.09076 218.328 6.4522 218.328 5.78689C218.328 5.12158 218.066 4.48302 217.599 4.00939C217.363 3.77829 217.083 3.59677 216.776 3.47552C216.469 3.35427 216.14 3.29575 215.81 3.3034Z" fill="#E93469"></path><path d="M217.916 10.3264H213.702V28.3814H217.916V10.3264Z" fill="white"></path><path d="M227.974 24.6134C227.538 24.6611 227.1 24.5358 226.755 24.2644C226.488 23.8947 226.367 23.4397 226.415 22.9864V14.0954H230.629V10.3274H226.415V5.42738L222.166 6.79741V10.3264H220.484L219.114 14.0944H222.163V23.3624C222.056 24.049 222.114 24.7511 222.33 25.4113C222.547 26.0715 222.917 26.6709 223.41 27.1605C223.903 27.6501 224.505 28.016 225.167 28.2282C225.829 28.4404 226.531 28.4929 227.217 28.3814H231.037V24.6134H227.974Z" fill="white"></path></svg>